<?xml version="1.0" encoding="utf-8"?>
<!-- Generator: Adobe Illustrator 16.0.0, SVG Export Plug-In . SVG Version: 6.00 Build 0)  -->
<!DOCTYPE svg PUBLIC "-//W3C//DTD SVG 1.1//EN" "http://www.w3.org/Graphics/SVG/1.1/DTD/svg11.dtd">
<svg version="1.1" id="Layer_1" xmlns="http://www.w3.org/2000/svg" xmlns:xlink="http://www.w3.org/1999/xlink" x="0px" y="0px"
	 width="244.991px" height="257.771px" viewBox="0 0 244.991 257.771" enable-background="new 0 0 244.991 257.771"
	 xml:space="preserve">
<g>
	<path d="M91.864,152.473c0-13.908,0-27.815,0-41.723c0.167-0.205,0.15-0.459,0.179-0.7c0.067-0.567,0.116-1.139,0.204-1.703
		c0.336-2.17,1.026-4.224,2.131-6.123c2.402-4.133,5.936-6.76,10.582-7.881c0.586-0.143,1.188-0.217,1.783-0.325
		c0.127-0.023,0.251-0.06,0.376-0.091c0.102-0.24,0.317-0.184,0.505-0.185c0.67-0.004,1.341-0.001,2.012-0.003
		c0.076-0.001,0.166,0.021,0.219-0.107c-0.104-0.105-0.215-0.223-0.332-0.333c-0.451-0.428-0.912-0.845-1.355-1.28
		c-1.176-1.153-2.164-2.451-2.953-3.896c-1.677-3.068-2.418-6.366-2.389-9.849c0.014-1.722,0.234-3.423,0.484-5.124
		c0.173-1.165,0.306-2.332,0.154-3.516c-0.137-1.062-0.494-2.028-1.145-2.882c-0.472-0.618-1.039-1.136-1.688-1.557
		c-0.533-0.347-1.098-0.647-1.646-0.97c-0.093-0.056-0.181-0.119-0.303-0.199c0.092-0.097,0.147-0.174,0.221-0.229
		c0.615-0.459,1.312-0.637,2.074-0.6c0.68,0.033,1.318,0.23,1.945,0.472c1.028,0.396,1.969,0.956,2.865,1.591
		c0.4,0.284,0.791,0.581,1.188,0.869c0.061,0.043,0.135,0.068,0.235,0.119c0.031-0.11,0.064-0.183,0.072-0.258
		c0.045-0.472,0.088-0.944,0.125-1.417c0.16-2.081,0.093-4.151-0.328-6.2c-0.23-1.125-0.555-2.219-1.061-3.254
		c-0.501-1.027-1.163-1.933-2.039-2.671c-0.186-0.156-0.404-0.271-0.609-0.404c-0.064-0.041-0.132-0.081-0.188-0.116
		c0.052-0.209,0.174-0.312,0.348-0.334c0.193-0.023,0.391-0.03,0.584-0.02c0.162,0.011,0.321,0.059,0.482,0.087
		c0.79,0.142,1.559,0.353,2.295,0.682c1.006,0.449,1.942,1.012,2.812,1.686c0.936,0.725,1.768,1.554,2.541,2.447
		c0.115,0.134,0.207,0.296,0.374,0.376c0.03-0.021,0.063-0.035,0.079-0.058c0.059-0.099,0.118-0.196,0.169-0.3
		c0.51-1.039,0.796-2.144,0.881-3.295c0.137-1.862-0.078-3.687-0.648-5.47c-0.496-1.552-1.194-3.006-2.031-4.395
		c-0.422-0.701-0.864-1.39-1.293-2.086c-0.065-0.105-0.113-0.224-0.175-0.345c0.439-0.055,1.309,0.006,1.778,0.106
		c1.177,0.251,2.204,0.804,3.143,1.54c0.724,0.567,1.366,1.221,1.964,1.916c0.543,0.633,1.068,1.282,1.606,1.92
		c0.112,0.134,0.2,0.299,0.391,0.378c0.342-0.114,0.559-0.344,0.582-0.704c0.039-0.604,0.058-1.213-0.048-1.812
		c-0.158-0.884-0.34-1.764-0.508-2.647c-0.285-1.492-0.604-2.979-0.766-4.493c-0.143-1.347-0.066-2.677,0.283-3.988
		c0.259-0.974,0.683-1.872,1.235-2.71c0.314-0.479,0.64-0.95,0.954-1.428c0.061-0.092,0.158-0.175,0.116-0.307
		c0.065,0,0.131,0,0.196,0c0.024,0.111,0.053,0.223,0.073,0.335c0.204,1.158,0.389,2.321,0.616,3.476
		c0.388,1.977,0.938,3.908,1.657,5.79c0.417,1.095,0.982,2.097,1.745,2.993c0.486,0.572,0.939,1.177,1.383,1.784
		c1.17,1.604,2.175,3.304,2.898,5.161c0.31,0.791,0.568,1.6,0.764,2.429c0.02,0.085,0.076,0.161,0.144,0.296
		c0.33-1.293,0.323-2.525,0.099-3.763c-0.167-0.92-0.443-1.81-0.788-2.677c-0.278-0.698-0.579-1.387-0.871-2.079
		c-0.036-0.089-0.103-0.175,0.011-0.273c0.054,0.013,0.117,0.021,0.178,0.042c0.125,0.04,0.249,0.082,0.37,0.131
		c1.394,0.561,2.569,1.423,3.525,2.58c0.712,0.863,1.284,1.813,1.745,2.832c0.801,1.764,1.2,3.628,1.352,5.546
		c0.109,1.386,0.164,2.775,0.23,4.165c0.071,1.535,0.127,3.072,0.193,4.609c0.005,0.125,0.03,0.247,0.053,0.419
		c0.139-0.075,0.241-0.116,0.327-0.178c0.887-0.657,1.462-1.53,1.768-2.585c0.169-0.583,0.253-1.183,0.3-1.785
		c0.078-1.012,0.14-2.024,0.211-3.036c0.006-0.092-0.016-0.198,0.105-0.29c0.068,0.031,0.165,0.055,0.232,0.111
		c0.359,0.308,0.738,0.599,1.063,0.94c0.859,0.902,1.458,1.968,1.866,3.14c0.542,1.559,0.723,3.149,0.355,4.779
		c-0.244,1.083-0.485,2.168-0.742,3.248c-0.217,0.908-0.42,1.817-0.518,2.745c-0.014,0.142-0.064,0.286,0.023,0.443
		c0.061-0.015,0.126-0.02,0.184-0.041c0.586-0.226,1.052-0.604,1.355-1.153c0.188-0.342,0.326-0.711,0.492-1.066
		c0.051-0.109,0.06-0.246,0.186-0.354c0.074,0.096,0.137,0.166,0.189,0.244c0.514,0.771,0.842,1.621,1.077,2.512
		c0.218,0.824,0.34,1.666,0.468,2.506c0.149,0.971,0.267,1.943,0.216,2.93c-0.008,0.146-0.003,0.296-0.001,0.441
		c0.013,0.672,0.015,1.342-0.174,1.995c-0.013,0.047-0.012,0.098-0.02,0.146c-0.112,0.66-0.195,1.328-0.345,1.98
		c-0.807,3.51-2.453,6.568-4.979,9.141c-1.455,1.481-3.108,2.702-4.913,3.723c-0.327,0.185-0.657,0.366-0.983,0.551
		c-0.068,0.039-0.151,0.075-0.092,0.196c0.091,0.003,0.187,0.009,0.283,0.011c1.093,0.031,2.187-0.045,3.281,0.08
		c0.763,0.087,1.527,0.157,2.283,0.303c3.076,0.598,5.78,1.942,8.091,4.061c2.344,2.149,3.957,4.77,4.925,7.789
		c0.355,1.105,0.654,2.227,0.715,3.396c0.004,0.094,0.055,0.184,0.084,0.274c0,14.562,0,29.125,0,43.687
		c-0.028,0.057-0.076,0.109-0.083,0.168c-0.118,1.068-0.534,2.018-1.185,2.861c-0.689,0.898-1.592,1.493-2.689,1.781
		c-1.255,0.331-2.497,0.242-3.718-0.163c-1.356-0.453-2.341-1.337-2.961-2.627c-0.198-0.414-0.345-0.847-0.458-1.289
		c-0.202-0.802-0.225-1.62-0.227-2.438c-0.008-4.155-0.018-8.31-0.019-12.465c-0.003-7.835-0.001-15.671-0.001-23.506
		c0-0.181,0.001-0.36-0.003-0.54c-0.003-0.078-0.021-0.155-0.03-0.225c-0.447-0.084-2.125-0.079-2.521,0.008
		c-0.058,0.23-0.027,0.476-0.027,0.717c-0.004,33.696-0.006,67.395-0.008,101.091c0,0.442-0.004,0.884-0.015,1.325
		c-0.016,0.705-0.111,1.401-0.295,2.082c-0.433,1.6-1.274,2.93-2.619,3.918c-1.038,0.763-2.209,1.188-3.479,1.36
		c-0.16,0.022-0.317,0.065-0.476,0.099c-0.523,0-1.047,0-1.57,0c-0.092-0.029-0.182-0.066-0.275-0.084
		c-0.209-0.039-0.42-0.061-0.629-0.102c-2.767-0.55-4.941-2.586-5.676-5.307c-0.219-0.81-0.29-1.638-0.29-2.476
		c0.003-8.392,0-16.784-0.001-25.175c0-11.173,0-22.346,0-33.52c0-0.164,0.006-0.328-0.002-0.49
		c-0.005-0.092-0.032-0.183-0.053-0.299c-0.299,0-0.576,0-0.854,0s-0.556-0.01-0.834,0.003c-0.271,0.011-0.551-0.056-0.848,0.067
		c0,0.213,0,0.424,0,0.635c-0.004,6.642-0.011,13.283-0.011,19.924c0.001,8.065,0.005,16.13,0.011,24.195
		c0.004,4.842,0.013,9.684,0.02,14.525c0.002,0.656-0.056,1.307-0.176,1.951c-0.648,3.449-3.26,5.601-6.213,6.059
		c-0.092,0.015-0.181,0.061-0.271,0.092c-0.688,0-1.374,0-2.062,0c-0.09-0.033-0.175-0.08-0.267-0.095
		c-0.977-0.164-1.897-0.483-2.759-0.974c-1.327-0.756-2.278-1.844-2.859-3.254c-0.461-1.119-0.65-2.291-0.678-3.494
		c-0.01-0.408,0.006-0.817,0.006-1.227c0-33.615,0-67.231,0-100.848c0-0.146,0.005-0.295-0.003-0.441
		c-0.005-0.093-0.026-0.185-0.042-0.281c-0.094-0.01-0.157-0.022-0.221-0.022c-0.702-0.003-1.406-0.005-2.109,0.001
		c-0.09,0-0.181,0.04-0.291,0.064c0,0.217,0,0.413,0,0.608c0.002,4.776,0.005,9.553,0.005,14.33c0,5.774-0.002,11.548-0.005,17.323
		c0,1.733-0.006,3.467-0.008,5.201c-0.002,0.945-0.182,1.856-0.588,2.71c-0.902,1.892-2.4,2.988-4.484,3.216
		c-1.305,0.144-2.535-0.178-3.675-0.822c-1.066-0.604-1.809-1.489-2.244-2.632c-0.216-0.569-0.346-1.157-0.403-1.763
		C92.03,152.892,92.042,152.653,91.864,152.473z"/>
</g>
<g>
	<path fill="none" d="M11.659,128.952c0,19.345,0,38.688,0,58.032c0,23.374,0,46.749,0.001,70.124c0,0.976-0.107,0.873,0.833,0.873
		c22.394,0.002,44.788,0.002,67.182,0.002c0.857,0,0.814,0.076,0.814-0.777c0-9.043,0-18.086-0.002-27.129
		c0-0.801,0.066-0.758-0.764-0.758c-0.107,0-0.214,0-0.32,0c-9.96,0-19.92,0-29.879-0.002c-0.982,0-0.85,0.068-0.85-0.861
		c-0.002-66.35-0.002-132.699,0-199.048c0-0.952-0.145-0.897,0.884-0.897c10.045-0.001,20.091,0,30.136-0.001
		c0.896,0,0.793,0.035,0.793-0.793c0.002-8.937,0.002-17.874,0-26.81c0-1.017,0.125-0.906-0.934-0.906
		C57.245-0.001,34.937-0.001,12.629-0.001c-0.97,0-0.97,0-0.97,0.988C11.659,43.644,11.659,86.298,11.659,128.952z"/>
	<path fill-rule="evenodd" clip-rule="evenodd" d="M0,128.952C0,86.298,0,43.644,0,0.987c0-0.988,0-0.988,0.969-0.988
		c22.31,0,44.618,0,66.926,0.002c1.06,0,0.933-0.11,0.934,0.906c0.003,8.936,0.002,17.873,0,26.81c0,0.828,0.103,0.793-0.793,0.793
		c-10.046,0.001-20.091,0-30.136,0.001c-1.029,0-0.883-0.055-0.883,0.897c-0.002,66.349-0.002,132.698,0,199.048
		c0,0.93-0.133,0.861,0.848,0.861c9.96,0.002,19.92,0.002,29.881,0.002c0.106,0,0.213,0,0.318,0c0.832,0,0.766-0.043,0.766,0.758
		c0,9.043,0,18.086,0,27.129c0,0.854,0.045,0.777-0.814,0.777c-22.393,0-44.787,0-67.181-0.002c-0.94,0-0.833,0.103-0.833-0.873
		C0,233.733,0,210.358,0,186.984C0,167.641,0,148.297,0,128.952z"/>
</g>
<path fill-rule="evenodd" clip-rule="evenodd" d="M244.989,128.817c0,42.655,0,85.312,0,127.966c0,0.988,0,0.988-0.97,0.988
	c-22.308,0-44.616,0.001-66.925-0.001c-1.059-0.001-0.933,0.109-0.934-0.908c-0.002-8.936-0.002-17.873,0-26.809
	c0-0.826-0.103-0.793,0.793-0.793c10.046,0,20.091,0,30.137-0.002c1.027,0,0.882,0.056,0.882-0.896
	c0.002-66.35,0.002-132.699,0.001-199.049c0-0.93,0.133-0.861-0.85-0.861c-9.959-0.002-19.919-0.002-29.879-0.002
	c-0.107,0-0.213,0-0.32,0c-0.83,0-0.765,0.045-0.765-0.758c-0.001-9.043-0.001-18.085-0.001-27.129c0-0.851-0.044-0.777,0.814-0.777
	c22.394,0,44.787,0,67.182,0.002c0.94,0,0.832-0.102,0.832,0.873c0.002,23.375,0.002,46.75,0.002,70.125
	C244.989,90.13,244.989,109.474,244.989,128.817z"/>
</svg>
